<svg id="Calque_1" data-name="Calque 1" xmlns="http://www.w3.org/2000/svg" xmlns:xlink="http://www.w3.org/1999/xlink" viewBox="0 0 168.42 39.21"><defs><linearGradient id="Dégradé_sans_nom_19" x1="16.38" y1="36.78" x2="16.38" y2="2.19" gradientUnits="userSpaceOnUse"><stop offset="0" stop-color="#fff" stop-opacity="0"/><stop offset="0.3" stop-color="#fbfbfb" stop-opacity="0.31"/><stop offset="0.78" stop-color="#f5f5f5" stop-opacity="0.8"/><stop offset="1" stop-color="#f2f2f2"/></linearGradient><linearGradient id="Dégradé_sans_nom_19-2" x1="52" y1="31.68" x2="52" y2="9.49" xlink:href="#Dégradé_sans_nom_19"/><linearGradient id="Dégradé_sans_nom_19-3" x1="78.46" y1="32.02" x2="78.46" y2="3.48" xlink:href="#Dégradé_sans_nom_19"/><linearGradient id="Dégradé_sans_nom_19-4" x1="95.78" y1="32.02" x2="95.78" y2="9.49" xlink:href="#Dégradé_sans_nom_19"/><linearGradient id="Dégradé_sans_nom_19-5" x1="109.71" y1="39.21" x2="109.71" y2="0" xlink:href="#Dégradé_sans_nom_19"/><linearGradient id="Dégradé_sans_nom_19-6" x1="127.06" y1="31.68" x2="127.06" y2="9.4" xlink:href="#Dégradé_sans_nom_19"/><linearGradient id="Dégradé_sans_nom_19-7" x1="146.18" y1="32.02" x2="146.18" y2="0.13" xlink:href="#Dégradé_sans_nom_19"/><linearGradient id="Dégradé_sans_nom_19-8" x1="165.15" y1="31.68" x2="165.15" y2="0.13" xlink:href="#Dégradé_sans_nom_19"/></defs><title>name</title><path d="M23.52,27.85a6.24,6.24,0,0,1-1.3-.14A4.47,4.47,0,0,1,21,27.27a3.92,3.92,0,0,1-1-.81,3.46,3.46,0,0,1-.73-1.21,7.63,7.63,0,0,1-2.64,2,7.23,7.23,0,0,1-2.95.59,5.65,5.65,0,0,1-2.4-.47A4.84,4.84,0,0,1,9.57,26a5.68,5.68,0,0,1-1-2,8.84,8.84,0,0,1-.35-2.53,10,10,0,0,1,.31-2.45,10.69,10.69,0,0,1,.91-2.39A10.94,10.94,0,0,1,11,14.49a9.82,9.82,0,0,1,2.2-1.77A12.08,12.08,0,0,1,16,11.53a13.33,13.33,0,0,1,3.57-.44c.62,0,1.18,0,1.69.07s1,.12,1.41.2a9,9,0,0,1,1.24.33c.38.13.78.28,1.19.45l-2.07,8a8.62,8.62,0,0,0-.32,2,1.84,1.84,0,0,0,.48,1.46,2,2,0,0,0,1.27.4,2.24,2.24,0,0,0,1.43-.54,4.61,4.61,0,0,0,1.15-1.49,9.38,9.38,0,0,0,.77-2.23,13.62,13.62,0,0,0,.28-2.8,12.58,12.58,0,0,0-.78-4.61A9,9,0,0,0,25.12,9a9.75,9.75,0,0,0-3.48-2.05,14,14,0,0,0-4.52-.69,12.24,12.24,0,0,0-5,1A11.92,11.92,0,0,0,8.2,10a12.85,12.85,0,0,0-2.56,4.11,13.74,13.74,0,0,0-.92,5,15.85,15.85,0,0,0,1,5.92,12,12,0,0,0,2.83,4.26,11.64,11.64,0,0,0,4.28,2.56,16.33,16.33,0,0,0,5.36.86,24.28,24.28,0,0,0,3.07-.18,22.27,22.27,0,0,0,2.54-.47,15.09,15.09,0,0,0,2-.64,12.91,12.91,0,0,0,1.52-.72,1.81,1.81,0,0,1,.87-.25,1.05,1.05,0,0,1,1,.78l.88,2.28a17,17,0,0,1-2.33,1.28,18.62,18.62,0,0,1-2.76,1,21.08,21.08,0,0,1-3.19.69,26.32,26.32,0,0,1-3.65.24,20.89,20.89,0,0,1-7.29-1.23A16.72,16.72,0,0,1,5.16,32a16,16,0,0,1-3.8-5.57A18.75,18.75,0,0,1,0,19.14,16.28,16.28,0,0,1,.59,14.8a16.71,16.71,0,0,1,1.69-4A17.89,17.89,0,0,1,4.91,7.34,16.81,16.81,0,0,1,17.12,2.19a17.15,17.15,0,0,1,4,.47A16.6,16.6,0,0,1,24.8,4,14.79,14.79,0,0,1,28,6.18,13.52,13.52,0,0,1,30.52,9.1a13.91,13.91,0,0,1,1.65,3.6,14.72,14.72,0,0,1,.59,4.21,12.87,12.87,0,0,1-.69,4.24,10.68,10.68,0,0,1-1.92,3.48A9.25,9.25,0,0,1,27.22,27,8,8,0,0,1,23.52,27.85ZM15,23.8a3,3,0,0,0,.92-.15,2.54,2.54,0,0,0,.85-.49,3.66,3.66,0,0,0,.73-.92A5.41,5.41,0,0,0,18,20.82l1.48-5.75a8.55,8.55,0,0,0-1-.06,4.34,4.34,0,0,0-2,.5,5.61,5.61,0,0,0-1.7,1.37,7,7,0,0,0-1.59,4.45,3,3,0,0,0,.47,1.86A1.62,1.62,0,0,0,15,23.8Z" style="fill:url(#Dégradé_sans_nom_19)"/><path d="M36.17,31.68V9.82h4a1.73,1.73,0,0,1,1,.28,1.44,1.44,0,0,1,.58.82l.36,1.18a10.1,10.1,0,0,1,1.14-1,7.31,7.31,0,0,1,1.27-.83,7,7,0,0,1,1.48-.54,6.76,6.76,0,0,1,1.74-.2,5.16,5.16,0,0,1,3.28,1,6.39,6.39,0,0,1,2,2.73,6.42,6.42,0,0,1,1.33-1.73,7.08,7.08,0,0,1,1.71-1.16A8.05,8.05,0,0,1,58,9.7a10.07,10.07,0,0,1,2-.21,9.32,9.32,0,0,1,3.34.55,6.39,6.39,0,0,1,2.43,1.63,7.11,7.11,0,0,1,1.49,2.61,11.48,11.48,0,0,1,.5,3.51V31.68H61.3V17.79q0-3.39-2.91-3.39a3,3,0,0,0-2.2.87,3.41,3.41,0,0,0-.88,2.52V31.68H48.78V17.79A3.72,3.72,0,0,0,48,15.16a2.88,2.88,0,0,0-2.17-.76,3.65,3.65,0,0,0-1.68.4,5.91,5.91,0,0,0-1.48,1.07V31.68Z" style="fill:url(#Dégradé_sans_nom_19-2)"/><path d="M80.14,32a7.73,7.73,0,0,1-2.75-.45,5.32,5.32,0,0,1-3.23-3.3,7.86,7.86,0,0,1-.43-2.64V14.33H71.88a1.17,1.17,0,0,1-1.22-1.28V10.5l3.47-.68,1.29-5.33a1.3,1.3,0,0,1,1.43-1h3.42V9.86h5.31v4.47H80.27V25.19a2,2,0,0,0,.37,1.25,1.24,1.24,0,0,0,1.06.5,2.28,2.28,0,0,0,1-.24l.34-.17a.87.87,0,0,1,.37-.08.75.75,0,0,1,.47.14,1.64,1.64,0,0,1,.37.43l2,3.1a9.07,9.07,0,0,1-2.85,1.42A11.15,11.15,0,0,1,80.14,32Z" style="fill:url(#Dégradé_sans_nom_19-3)"/><path d="M102.7,14.61a1.75,1.75,0,0,1-.54.57,1.44,1.44,0,0,1-.73.16,2.23,2.23,0,0,1-.93-.2l-1-.43a11.21,11.21,0,0,0-1.21-.43,5.53,5.53,0,0,0-1.54-.2,3.33,3.33,0,0,0-1.91.47,1.54,1.54,0,0,0-.66,1.32,1.29,1.29,0,0,0,.43,1,3.83,3.83,0,0,0,1.15.71,16.62,16.62,0,0,0,1.62.58c.61.18,1.23.39,1.86.61a17.73,17.73,0,0,1,1.85.79,6.93,6.93,0,0,1,1.63,1.12,5,5,0,0,1,1.14,1.61,5.42,5.42,0,0,1,.44,2.28,7.53,7.53,0,0,1-.59,3A6.45,6.45,0,0,1,102,29.93a8.47,8.47,0,0,1-2.89,1.54,12.87,12.87,0,0,1-4,.55,12.13,12.13,0,0,1-2.24-.21,15.58,15.58,0,0,1-2.16-.57,11.29,11.29,0,0,1-1.93-.86,8.15,8.15,0,0,1-1.52-1.06l1.52-2.4a2.11,2.11,0,0,1,.66-.67,1.81,1.81,0,0,1,1-.24,2.14,2.14,0,0,1,1,.25l1,.55a7.91,7.91,0,0,0,1.23.55,5.33,5.33,0,0,0,1.78.25,4.36,4.36,0,0,0,1.29-.16,2.08,2.08,0,0,0,.84-.43,1.7,1.7,0,0,0,.47-.61,1.81,1.81,0,0,0,.14-.69,1.4,1.4,0,0,0-.44-1.08,3.92,3.92,0,0,0-1.16-.73A13.38,13.38,0,0,0,95,23.35c-.61-.18-1.24-.38-1.87-.61a13.78,13.78,0,0,1-1.86-.81,6,6,0,0,1-1.63-1.2A5.62,5.62,0,0,1,88.42,19,6.66,6.66,0,0,1,88,16.4a6.65,6.65,0,0,1,.54-2.65,6.26,6.26,0,0,1,1.61-2.2A8.15,8.15,0,0,1,92.83,10a11.74,11.74,0,0,1,3.79-.55,12.27,12.27,0,0,1,2.29.21,11.15,11.15,0,0,1,2.08.59,10.46,10.46,0,0,1,1.77.89,9,9,0,0,1,1.41,1.13Z" style="fill:url(#Dégradé_sans_nom_19-4)"/><path d="M114.63,9.82v21.9a10.42,10.42,0,0,1-.4,2.9A5.91,5.91,0,0,1,113,37a6.28,6.28,0,0,1-2.36,1.62,9.87,9.87,0,0,1-3.64.59,9.75,9.75,0,0,1-1.48-.1,13.82,13.82,0,0,1-1.43-.28l.21-3.44a.93.93,0,0,1,.3-.65,1.68,1.68,0,0,1,1-.21,4.71,4.71,0,0,0,1.24-.13,1.43,1.43,0,0,0,.77-.44,1.77,1.77,0,0,0,.4-.86,6.47,6.47,0,0,0,.12-1.38V9.82Zm.75-6a3.42,3.42,0,0,1-.31,1.46,3.7,3.7,0,0,1-.87,1.2,4,4,0,0,1-1.27.82,3.87,3.87,0,0,1-1.55.31,3.63,3.63,0,0,1-1.5-.31,4.07,4.07,0,0,1-1.23-.82,3.62,3.62,0,0,1-.84-1.2,3.42,3.42,0,0,1-.31-1.46,3.57,3.57,0,0,1,.31-1.5,3.8,3.8,0,0,1,.84-1.22A3.9,3.9,0,0,1,109.88.3a3.79,3.79,0,0,1,1.5-.3,4,4,0,0,1,1.55.3,3.86,3.86,0,0,1,1.27.82,3.89,3.89,0,0,1,.87,1.22A3.57,3.57,0,0,1,115.38,3.84Z" style="fill:url(#Dégradé_sans_nom_19-5)"/><path d="M119.81,31.68V9.82h3.88a3.12,3.12,0,0,1,.81.09,1.34,1.34,0,0,1,.55.26,1.06,1.06,0,0,1,.33.47,3.69,3.69,0,0,1,.2.72l.36,2.05a10.68,10.68,0,0,1,2.7-2.93,5.48,5.48,0,0,1,3.27-1.08,3.73,3.73,0,0,1,2.4.72l-.84,4.8a1,1,0,0,1-.34.63,1.13,1.13,0,0,1-.67.18,5,5,0,0,1-.85-.1,6.84,6.84,0,0,0-1.22-.09,4.5,4.5,0,0,0-4,2.73V31.68Z" style="fill:url(#Dégradé_sans_nom_19-6)"/><path d="M152.56,31.68a1.85,1.85,0,0,1-1-.27,1.51,1.51,0,0,1-.58-.82l-.5-1.67a13.36,13.36,0,0,1-1.37,1.26,8.62,8.62,0,0,1-1.55,1,8.18,8.18,0,0,1-1.8.64,9.59,9.59,0,0,1-2.07.22,6.67,6.67,0,0,1-3.16-.76A7.36,7.36,0,0,1,138,29.07a11.43,11.43,0,0,1-1.66-3.51,17.1,17.1,0,0,1-.6-4.74,14.79,14.79,0,0,1,.68-4.54,11.06,11.06,0,0,1,1.91-3.62,8.81,8.81,0,0,1,3-2.4,8.46,8.46,0,0,1,3.81-.86,7.32,7.32,0,0,1,2.86.5,8.47,8.47,0,0,1,2.12,1.29V.13h6.53V31.68ZM146,27a5.15,5.15,0,0,0,1.29-.14,4.53,4.53,0,0,0,1.07-.39,3.91,3.91,0,0,0,.91-.63,8,8,0,0,0,.86-.88V15.68a4.38,4.38,0,0,0-1.62-1.15,5.09,5.09,0,0,0-1.8-.32,3.81,3.81,0,0,0-1.66.36,3.4,3.4,0,0,0-1.32,1.14,6.45,6.45,0,0,0-.88,2.06,12.79,12.79,0,0,0-.31,3.05,14,14,0,0,0,.25,2.91,6,6,0,0,0,.71,1.91,2.77,2.77,0,0,0,1.08,1.05A3.15,3.15,0,0,0,146,27Z" style="fill:url(#Dégradé_sans_nom_19-7)"/><path d="M168.42.13V31.68h-6.54V.13Z" style="fill:url(#Dégradé_sans_nom_19-8)"/></svg>