<svg id="Calque_1" data-name="Calque 1" xmlns="http://www.w3.org/2000/svg" viewBox="0 0 200 77.09"><title>thumbnail_convives</title><g id="Calque_2" data-name="Calque 2"><g id="Layer_1" data-name="Layer 1"><path d="M50,175v-.1a13.42,13.42,0,0,1,13.41-13.7,12.92,12.92,0,0,1,10.31,4.51l-3.68,4c-1.81-1.94-3.68-3.28-6.63-3.28-4.34,0-7.52,3.77-7.52,8.38v.1c0,4.67,3.17,8.39,7.71,8.39a8.92,8.92,0,0,0,6.68-3.22l3.57,3.56a13,13,0,0,1-10.54,4.92A13.32,13.32,0,0,1,50,175" transform="translate(-50 -111.46)" style="fill:#303c42"/><path d="M97.87,175v-.1c0-4.62-3.27-8.44-7.91-8.44s-7.76,3.77-7.76,8.38v.1c0,4.57,3.27,8.39,7.86,8.39,4.78,0,7.81-3.77,7.81-8.29M76.3,175v-.1a13.58,13.58,0,0,1,13.42-13.74h.33a13.46,13.46,0,0,1,13.71,13.2v.54a13.58,13.58,0,0,1-13.51,13.65H90a13.43,13.43,0,0,1-13.66-13.2V175" transform="translate(-50 -111.46)" style="fill:#303c42"/><path d="M108.53,161.69h5.89v4a9.31,9.31,0,0,1,8-4.56c5.8,0,9.17,4,9.17,10v16.73h-5.89V173c0-4.07-2-6.4-5.51-6.4s-5.8,2.43-5.8,6.5v14.8h-5.9V161.69Z" transform="translate(-50 -111.46)" style="fill:#303c42"/><polygon points="84.53 50.24 90.87 50.24 97.8 69.5 104.78 50.24 110.97 50.24 100.44 76.65 95.11 76.65 84.53 50.24" style="fill:#303c42"/><rect x="115.05" y="50.24" width="5.9" height="26.22" style="fill:#303c42"/><polygon points="125.04 50.24 131.38 50.24 138.3 69.5 145.28 50.24 151.48 50.24 140.94 76.65 135.62 76.65 125.04 50.24" style="fill:#303c42"/><path d="M220.64,173c-.39-3.88-2.63-6.9-6.53-6.9-3.61,0-6.15,2.83-6.69,6.9Zm-19.07,1.93v-.11c0-7.5,5.22-13.66,12.58-13.66,8.2,0,12.34,6.56,12.34,14.1,0,.54,0,1.1-.09,1.68H207.47c.64,4.28,3.61,6.63,7.42,6.63a9.25,9.25,0,0,0,7-3.13l3.46,3.13a12.9,12.9,0,0,1-10.53,4.91c-7.47,0-13.26-5.5-13.26-13.6" transform="translate(-50 -111.46)" style="fill:#303c42"/><path d="M229.52,184.48l2.64-4.07a14.36,14.36,0,0,0,8.44,3.23c2.63,0,4-1.09,4-2.83v-.13c0-2-2.73-2.73-5.75-3.68-3.81-1.09-8.05-2.68-8.05-7.7v-.1c0-5,4-8,9.17-8a17.71,17.71,0,0,1,9.46,2.94l-2.34,4.27a14.88,14.88,0,0,0-7.27-2.48c-2.29,0-3.61,1.09-3.61,2.59v.1c0,1.94,2.78,2.72,5.8,3.72,3.76,1.19,8,2.94,8,7.64v.11c0,5.5-4.2,8.24-9.57,8.24a17.88,17.88,0,0,1-10.93-3.93" transform="translate(-50 -111.46)" style="fill:#303c42"/><path d="M185.68,124.12a20.58,20.58,0,0,0-4.36-6.59,20.35,20.35,0,0,0-6.47-4.42,20.2,20.2,0,0,0-22.33,4.42l-7.07,7.72L143,127.88l-6.88,7.52a10.19,10.19,0,0,1-14.43,0l-.11-.11a10.63,10.63,0,0,1,0-14.88,10.31,10.31,0,0,1,3.29-2.25H125c.3-.13.59-.24.89-.34h0a10.06,10.06,0,0,1,1.52-.33l.26,0c.21,0,.42,0,.63,0h1.29a2.35,2.35,0,0,1,.64.06l.25,0a3.76,3.76,0,0,1,.67.12l.14,0a9.59,9.59,0,0,1,1.57.51H133a9.37,9.37,0,0,1,.9.44c.3.16.58.34.86.52s.54.4.79.61l.36.33.38.35c.12.12.27.3.4.46l.27.29c.2.26.41.53.59.81a8.68,8.68,0,0,1,.52.87c.15.29.24.48.35.74,0,.06.06.12.08.2s.17.43.24.65l4.28-4.67c-.19-.34-.39-.68-.61-1l-.05-.07h0a14.5,14.5,0,0,0-.87-1.19l0,0h0c-.33-.4-.68-.79-1-1.15h0a11.25,11.25,0,0,0-1.14-1h0l-.15-.13a11.82,11.82,0,0,0-1.16-.89h0l-.08,0a9.81,9.81,0,0,0-1.24-.73h0a13.16,13.16,0,0,0-1.36-.67l-.74-.3-.68-.31h-.09a15.68,15.68,0,0,0-3.13-.65h0c-.55-.05-1.1-.08-1.66-.08h0a10.45,10.45,0,0,0-1.25.05h-.38c-.35,0-.7.09-1,.14l-.28.06-.28.05c-.3.06-.59.13-.89.21l-.19.06-.48.13-.73.26-.74.29a16.07,16.07,0,0,0-8.59,8.78,16.68,16.68,0,0,0,0,12.79,16.27,16.27,0,0,0,8.61,8.75,16,16,0,0,0,12.57,0,16.15,16.15,0,0,0,5-3.38h0l.09-.1.06-.05h0l5.67-6.19,4.24-4.62,6.42-7a14.64,14.64,0,0,1,4.6-3.14,14.37,14.37,0,0,1,16,3.18,15,15,0,0,1,0,21,16.53,16.53,0,0,1-1.54,1.35,14.34,14.34,0,0,1-3.09,1.82h0a14.11,14.11,0,0,1-4.17,1.09,14.54,14.54,0,0,1-2.95,0,12.12,12.12,0,0,1-1.47-.22,10.9,10.9,0,0,1-1.39-.36c-.45-.14-.9-.31-1.34-.49l-.34-.16-.57-.28-.35-.18-.32-.18-.56-.35-.33-.21-.26-.2c-.21-.14-.4-.29-.6-.45l-.26-.21h0l-4,4.32h0l.12.11.18.15c.26.22.54.44.82.66l.39.28.35.26.33.22.66.42.69.4h.07l.67.35.47.22c.19.09.38.2.58.28a20,20,0,0,0,15.85,0h0c.48-.2.94-.43,1.39-.67a20,20,0,0,0,5.09-3.77,20.76,20.76,0,0,0,4.36-6.58,21.18,21.18,0,0,0,0-16.14" transform="translate(-50 -111.46)" style="fill:#81c241"/><path d="M171.88,132.52a3.92,3.92,0,0,0-3.89-4,3.83,3.83,0,0,0-3.11,1.59,4,4,0,0,0,.35,5.16,3.83,3.83,0,0,0,2.76,1.17,3.92,3.92,0,0,0,3.89-4" transform="translate(-50 -111.46)" style="fill:#303c42"/></g></g></svg>